<?xml version="1.0" standalone="no"?>
<!DOCTYPE svg PUBLIC "-//W3C//DTD SVG 20010904//EN"
 "http://www.w3.org/TR/2001/REC-SVG-20010904/DTD/svg10.dtd">
<svg version="1.0" xmlns="http://www.w3.org/2000/svg"
 width="700.000000pt" height="700.000000pt" viewBox="0 0 700.000000 700.000000"
 preserveAspectRatio="xMidYMid meet">
<metadata>
Created by potrace 1.14, written by Peter Selinger 2001-2017
</metadata>
<g transform="translate(0.000000,700.000000) scale(0.100000,-0.100000)"
fill="#000000" stroke="none">
<path d="M3645 6777 c-66 -116 -157 -276 -203 -356 -46 -80 -95 -166 -109
-191 -64 -113 -76 -131 -90 -128 -8 2 -110 168 -226 370 -116 202 -212 367
-213 365 -3 -3 -12 -83 -19 -162 -3 -38 -8 -86 -10 -105 -3 -19 -7 -60 -10
-90 -3 -30 -10 -104 -16 -165 -6 -60 -13 -128 -15 -150 -2 -22 -6 -60 -8 -85
-3 -25 -8 -74 -12 -110 -3 -36 -11 -70 -18 -76 -6 -6 -42 -23 -81 -36 -38 -14
-196 -74 -350 -133 -154 -59 -338 -129 -410 -156 -194 -74 -238 -91 -260 -100
-18 -8 -505 -194 -705 -269 -41 -16 -129 -50 -195 -75 -66 -26 -133 -51 -150
-57 -45 -16 -50 -25 -23 -40 14 -7 95 -65 182 -128 86 -63 167 -120 179 -127
12 -6 58 -14 102 -18 44 -3 96 -8 115 -10 19 -3 69 -7 110 -11 41 -3 91 -7
110 -9 19 -2 78 -6 130 -10 52 -4 102 -9 111 -10 8 -2 55 -6 105 -10 49 -3
105 -8 124 -10 19 -3 64 -7 100 -10 36 -3 90 -7 120 -10 79 -8 157 -15 215
-20 81 -6 187 -15 230 -20 22 -3 72 -7 110 -10 39 -4 90 -8 115 -10 25 -2 81
-7 125 -10 44 -3 96 -7 115 -10 19 -2 63 -7 98 -10 155 -13 189 -16 222 -20
19 -2 71 -7 115 -10 44 -3 103 -8 132 -11 60 -6 53 -18 80 151 2 17 29 176 60
355 30 179 56 337 58 352 2 15 9 53 14 85 6 32 13 72 15 88 3 17 24 138 46
270 22 132 43 256 46 275 3 19 12 73 20 119 16 87 14 162 -11 361 -3 19 -7 67
-10 105 -4 39 -8 77 -10 85 -2 8 -7 53 -10 100 -4 46 -10 90 -13 96 -4 7 -58
-78 -127 -199z"/>
<path d="M3428 4454 c-2 -1 -41 -5 -88 -8 -47 -4 -98 -8 -115 -10 -16 -2 -66
-7 -110 -11 -44 -4 -96 -8 -115 -10 -19 -2 -66 -6 -105 -9 -38 -4 -86 -8 -105
-11 -38 -5 -104 -11 -215 -20 -38 -3 -86 -8 -105 -10 -37 -5 -186 -17 -207
-18 -7 0 -13 -7 -14 -16 -5 -80 -2 -3401 2 -3401 4 0 155 88 335 197 181 108
340 203 354 210 14 8 37 22 51 31 15 9 53 33 86 52 33 19 348 208 701 420 354
212 659 395 680 407 24 14 36 28 35 40 -1 11 -23 64 -48 119 -54 114 -58 124
-118 259 -25 55 -58 129 -75 165 -39 86 -71 155 -149 330 -36 80 -76 170 -90
200 -14 30 -68 150 -120 265 -52 116 -107 237 -122 270 -15 33 -79 174 -141
312 l-114 253 -43 -2 c-24 -1 -44 -2 -45 -4z"/>
<path d="M5180 2139 c-36 -17 -108 -50 -160 -74 -102 -46 -171 -77 -350 -160
-63 -29 -142 -65 -175 -80 -285 -129 -373 -169 -458 -209 -54 -25 -99 -46
-101 -46 -2 0 -46 -20 -97 -44 -52 -24 -218 -100 -369 -169 -151 -69 -309
-141 -350 -160 -41 -19 -95 -44 -120 -55 -77 -35 -721 -328 -790 -360 -228
-104 -651 -298 -685 -312 -22 -10 -80 -37 -130 -60 -49 -23 -110 -51 -135 -62
-25 -11 -74 -34 -110 -50 -36 -17 -162 -74 -280 -128 -118 -54 -249 -113 -290
-133 l-75 -36 190 5 c105 2 276 6 380 9 105 3 278 7 385 10 107 3 274 7 370
10 96 3 267 7 380 10 113 3 275 7 360 10 85 2 261 7 390 10 129 3 298 8 375
10 77 3 237 7 355 10 386 10 562 14 770 20 203 6 342 9 740 20 113 3 279 7
370 10 91 2 269 7 395 10 372 9 518 14 522 18 2 2 -87 152 -198 333 -111 181
-214 349 -229 374 -15 25 -188 308 -385 630 -197 322 -370 604 -384 628 -14
23 -30 42 -36 42 -5 0 -39 -14 -75 -31z"/>
</g>
</svg>
