<svg width="508" height="592" viewBox="0 0 508 592" fill="none" xmlns="http://www.w3.org/2000/svg">
<path d="M233 165.5L379.5 489.5L148 587V186L233 165.5Z" fill="#F9B28C"/>
<g style="mix-blend-mode:multiply">
<path fill-rule="evenodd" clip-rule="evenodd" d="M148 552.579V513.925L338.893 399.693L379.5 489.5L278.744 531.935L148 552.579Z" fill="#E5A0A0"/>
<path fill-rule="evenodd" clip-rule="evenodd" d="M255.173 214.538L148 224.585V186L222.465 168.041L234.898 169.699L255.173 214.538Z" fill="#E5A0A0"/>
</g>
<path d="M403 408L507.255 578.5L0 592L403 408Z" fill="#F9B28C"/>
<path fill-rule="evenodd" clip-rule="evenodd" d="M119 588.833L0 592L119 537.667V588.833Z" fill="#EEEEEE"/>
<g style="mix-blend-mode:multiply">
<path fill-rule="evenodd" clip-rule="evenodd" d="M468.879 515.739L507.255 578.5L0 592L468.879 515.739Z" fill="#E5A0A0"/>
</g>
<path d="M195 13L187 93.5L0 164.971L33.6335 189.187L257.385 209L282.977 56.7736L277 0L234 75.5L231.5 76.5L195 13Z" fill="#F9B28C"/>
<path fill-rule="evenodd" clip-rule="evenodd" d="M261.781 182.853L173.963 201.613L257.385 209L261.781 182.853Z" fill="#EEEEEE"/>
<g style="mix-blend-mode:multiply">
<path fill-rule="evenodd" clip-rule="evenodd" d="M275.218 102.926L282.977 56.7736L277 0L275.218 102.926ZM231.5 76.5L195 13L217.5 81L231.5 76.5Z" fill="#E5A0A0"/>
</g>
<path d="M191 92L214 82.9938L197.033 34L191 92Z" fill="#EEEEEE"/>
<path d="M241 73L272 19L271.279 61.5563L241 73Z" fill="#EEEEEE"/>
</svg>
